<svg width="966" height="366" viewBox="0 0 966 366" fill="none" xmlns="http://www.w3.org/2000/svg">
<path d="M98.2728 226.916C76.8234 218.683 56.1469 208.447 36.527 196.508C24.3356 223.888 12.1757 251.267 0 278.647C13.3585 287.889 20.0299 292.116 33.3885 299.812C37.5522 289.245 39.634 283.962 43.7977 273.395C56.2888 280.287 62.5343 283.394 75.0254 288.993C95.8597 298.156 127.419 299.308 134.737 274.136C141.44 251.031 118.271 234.486 98.2728 226.916ZM79.2049 269.389C67.8494 264.405 62.1558 261.661 50.8003 255.589C54.5697 246 56.4623 241.205 60.2475 231.616C71.3664 237.294 76.918 239.833 88.037 244.438C100.213 249.485 105.922 257.15 103.493 264.578C100.907 272.433 91.6487 274.846 79.2049 269.389Z" fill="#FFF1F1"/>
<path d="M181.247 288.741C182.619 282.968 183.313 280.098 184.685 274.325C172.462 272.717 166.358 271.691 154.135 269.089C147.527 293.44 140.934 317.792 134.326 342.143C147.275 345.707 153.741 347.206 166.689 349.713C168.945 340.282 170.065 335.566 172.32 326.135C176.152 306.783 194.763 299.402 212.711 301.673C214.966 301.847 216.102 301.91 218.341 302.052C220.881 292.116 222.158 287.148 224.682 277.196C222.489 276.644 220.613 276.407 217.931 276.265C202.286 275.445 190.347 280.729 181.247 288.741Z" fill="#FFF1F1"/>
<path d="M224.351 357.221C237.299 358.12 243.765 358.372 256.714 358.514C261.02 331.45 265.325 304.37 269.631 277.306C257.408 277.937 251.304 278.095 239.081 278C234.176 304.402 229.271 330.803 224.351 357.221Z" fill="#FFF1F1"/>
<path d="M260.956 239.675C250.941 240.227 242.646 246.946 241.195 254.658C239.68 262.686 245.768 268.758 256.004 268.443C266.24 268.127 274.599 261.44 275.892 253.176C277.138 245.227 270.971 239.107 260.956 239.675Z" fill="#FFF1F1"/>
<path d="M353.505 264.894C341.913 267.276 331.014 272.449 322.939 280.129C323.302 276.896 323.491 275.288 323.87 272.054C311.647 273.726 305.543 274.452 293.32 275.572C289.488 303.124 285.655 330.693 281.807 358.246C294.756 357.868 301.222 357.505 314.17 356.543C315.968 340.85 316.867 333.012 318.665 317.319C320.542 300.995 329.311 292.841 341.534 291.059C351.423 289.624 357.605 295.365 356.722 305.538C355.082 324.432 354.262 333.879 352.622 352.789C365.491 351.275 371.926 350.392 384.796 348.515C385.963 330.472 387.13 312.43 388.297 294.387C390.678 273.537 372.809 260.92 353.505 264.894Z" fill="#FFF1F1"/>
<path d="M456.887 267.827C466.776 265.572 474.661 268.9 477.327 279.562C489.092 274.325 494.944 271.676 506.615 266.361C500.669 244.564 477.532 236.899 457.36 242.23C429.949 249.469 404.352 273.521 402.57 301.689C400.85 328.927 429.839 345.266 455.53 339.446C477.989 334.368 502.751 317.997 506.946 293.204C495.259 293.188 489.439 293.22 477.832 293.283C474.409 305.269 466.176 311.862 456.004 313.849C441.636 316.672 432.378 309.086 432.835 295.727C433.308 282.59 442.945 270.998 456.887 267.827Z" fill="#FFF1F1"/>
<path d="M525.794 323.88C538.743 321.562 545.209 320.426 558.157 318.281C556.817 286.028 555.46 253.775 554.12 221.522C541.897 224.314 535.793 225.765 523.57 228.714C524.312 260.431 525.053 292.148 525.794 323.88Z" fill="#FFF1F1"/>
<path d="M537.353 179.38C527.338 182.061 520.462 191.966 520.667 201.255C520.872 210.908 528.237 216.286 538.489 213.794C548.725 211.302 555.806 202.233 555.38 192.392C554.955 182.929 547.368 176.683 537.353 179.38Z" fill="#FFF1F1"/>
<path d="M637.85 202.139C625.722 203.7 615.896 209.851 608.909 218.147C608.672 214.977 608.562 213.384 608.325 210.198C596.102 212.469 589.999 213.7 577.776 216.286C580.205 260.021 582.634 303.771 585.078 347.506C598.279 345.787 604.871 344.998 618.057 343.642C616.842 326.955 616.227 318.612 615.013 301.942C623.372 307.887 634.491 310.9 647.423 309.559C675.055 306.689 694.091 278.915 690.811 251.678C687.72 226.017 665.387 198.606 637.85 202.139ZM638.402 282.811C625.438 284.246 613.104 275.54 611.969 260.052C610.849 244.754 621.321 232.31 633.907 230.496C647.471 228.556 658.4 238.287 659.946 253.98C661.507 269.878 652.375 281.265 638.402 282.811Z" fill="#FFF1F1"/>
<path d="M713.522 303.645C726.471 303.74 732.937 303.945 745.885 304.796C738.899 253.586 731.927 202.391 724.941 151.181C713.033 151.496 707.087 151.859 695.18 152.868C701.299 203.117 707.418 253.381 713.522 303.645Z" fill="#FFF1F1"/>
<path d="M797.364 199.458C766.846 193.386 752.005 227.515 754.907 252.072C758.645 283.757 787.318 310.348 816.842 317.918C834.869 322.555 857.58 318.155 860.608 296.185C848.811 289.719 842.928 286.754 831.194 281.281C827.772 290.996 819.492 290.933 812.11 289.403C801.323 287.179 791.828 277.764 787.191 264.216C811.874 267.717 836.241 273.363 859.898 281.233C859.189 277.448 858.842 275.556 858.148 271.771C851.981 241.3 829.806 205.908 797.364 199.458ZM784.4 242.782C785.567 231.963 793.468 226.916 802.19 228.414C811.085 229.944 819.791 237.231 824.838 250.116C808.656 246.331 800.566 244.896 784.4 242.782Z" fill="#FFF1F1"/>
<path d="M928.899 291.154C919.184 283.678 914.342 280.161 904.674 273.49C898.097 268.853 896.268 265.068 895.59 261.74C894.722 257.45 896.426 253.554 904.737 257.513C914.2 262.039 921.423 271.991 923.978 280.051C934.75 283.378 940.113 285.303 950.806 289.671C942.352 264.642 921.881 242.53 899.532 230.323C881.127 220.292 860.451 231.316 865.892 253.586C870.513 272.496 884.455 289.009 901.22 299.497C909.674 305.096 913.9 308.045 922.386 314.259C930.066 319.827 933.315 324.526 934.183 328.643C935.302 333.989 931.628 335.661 923.221 331.229C914.626 326.687 906.062 319.196 902.624 308.345C890.842 305.648 884.928 304.575 873.036 302.935C882.01 328.154 906.093 346.402 927.29 358.877C939.577 366.1 974.022 374.522 964.291 345.172C957.84 325.725 946.153 305.08 928.899 291.154Z" fill="#FFF1F1"/>
<path d="M340.32 129.243C357.842 146.513 375.806 163.357 394.022 179.885C403.848 177.22 408.752 175.816 418.562 172.977C420.471 133.154 422.363 93.3308 424.272 53.5076C413.421 57.829 408.011 59.9424 397.16 64.0272C395.536 87.3534 393.896 110.68 392.271 134.006C374.875 117.43 357.779 100.523 341.124 83.1897C332.071 85.934 327.529 87.2272 318.476 89.6087C313.334 126.372 308.193 163.12 303.051 199.884C314.959 198.038 320.92 196.95 332.828 194.553C335.32 172.772 337.828 151.008 340.32 129.243Z" fill="#FFF1F1"/>
<path d="M500.558 115.774C495.874 126.561 488.209 130.725 481.616 132.886C472.012 136.04 464.804 131.624 462.691 121.42C484.25 114.054 505.763 106.595 527.37 99.3396C527.275 96.2168 527.244 94.6554 527.149 91.5327C528.332 65.3676 505.999 48.8547 482.027 57.9865C455.988 67.9068 436.841 97.0054 435.374 123.312C434.002 147.853 457.517 164.934 481.538 156.59C501.504 149.651 519.311 134.1 525.777 112.903C515.652 113.991 510.605 114.575 500.558 115.774ZM481.963 82.0697C489.865 79.1362 496.741 81.2338 499.438 90.4129C485.07 95.5544 477.894 98.1567 463.526 103.282C466.271 93.031 474.235 84.9559 481.963 82.0697Z" fill="#FFF1F1"/>
<path d="M598.879 64.6265C605.535 81.3917 612.269 98.1096 619.114 114.796C629.145 112.493 634.176 111.421 644.207 109.449C650.657 73.1274 656.367 36.6635 661.461 0.136475C650.847 2.5653 645.532 3.90588 634.917 6.82363C632.126 26.4119 629.129 45.9687 625.943 65.4939C618.878 48.918 611.875 32.3105 604.983 15.6715C597.334 18.0845 593.517 19.3463 585.868 21.9328C581.657 41.4265 577.414 60.8886 572.825 80.3035C565.869 60.9675 562.494 51.4099 555.933 32.484C545.319 36.3638 540.004 38.3668 529.39 42.4043C539.72 71.6606 550.35 100.807 561.359 129.81C571.389 126.94 576.421 125.552 586.451 122.903C590.804 103.519 594.952 84.0886 598.879 64.6265Z" fill="#FFF1F1"/>
</svg>
