<svg width="872" height="412" viewBox="0 0 872 412" fill="none" xmlns="http://www.w3.org/2000/svg">
<path d="M87.7688 305.772C77.0771 293.246 72.1065 287.508 62.9493 277.05C59.0629 279.335 57.1281 280.536 53.2584 283.021C45.9026 303.304 42.2331 313.445 34.894 333.727C20.9331 342.901 13.9609 348.105 0 359.881C19.3652 308.991 38.747 258.101 58.1122 207.212C77.1438 192.066 98.0101 179.156 120.378 169.565C144.447 156.122 158.791 179.74 150.935 200.957C142.211 224.492 123.964 243.307 102.113 256.35C112.388 269.761 117.942 276.983 129.885 292.528C113.022 296.365 104.599 298.95 87.7688 305.772ZM94.891 235.784C106.467 230.346 116.141 220.972 119.544 210.614C122.88 200.473 117.892 196.136 106.7 201.24C94.8743 206.644 88.953 209.797 77.1271 217.119C71.9897 231.314 69.4044 238.419 64.267 252.614C76.5266 244.874 82.6481 241.538 94.891 235.784Z" fill="#FDF7F7"/>
<path d="M250.997 246.959C226.327 243.29 201.241 242.122 176.371 244.207C175.754 256.15 182.276 262.855 193.435 262.671C201.091 262.555 210.448 260.97 218.204 251.513C229.296 254.482 234.867 256.216 246.093 260.103C233.049 279.802 208.73 287.141 187.063 288.375C158.574 290.01 138.942 268.343 147.032 240.387C155.188 212.165 183.394 180.757 213.767 181.508C241.206 182.192 259.036 212.065 252.614 238.853C251.964 242.105 251.647 243.723 250.997 246.959ZM182.293 224.308C198.739 223.057 206.979 223.09 223.425 224.125C222.908 213.166 216.269 207.662 207.279 207.628C198.489 207.595 188.031 213.75 182.293 224.308Z" fill="#FDF7F7"/>
<path d="M372.041 321.918C358.497 317.181 351.742 314.896 338.198 310.676C338.515 307.54 338.682 305.972 339.015 302.837C330.125 307.107 318.366 307.307 304.805 304.071C276.366 297.282 257.435 268.176 262.655 240.505C267.142 216.703 291.728 190.632 319.033 199.673C330.942 203.609 340.767 210.698 347.555 220.139C347.872 217.003 348.039 215.435 348.373 212.299C360.582 216.569 366.67 218.838 378.88 223.558C376.595 256.334 374.326 289.126 372.041 321.918ZM343.285 261.471C344.853 246.376 334.578 232.098 321.852 228.245C308.158 224.108 296.565 232.031 294.213 247.176C291.845 262.505 300.785 275.165 315.247 279.252C328.674 283.055 341.701 276.766 343.285 261.471Z" fill="#FDF7F7"/>
<path d="M396.577 330.709C398.695 283.655 400.797 236.601 402.915 189.531C414.541 194.435 420.346 196.954 431.972 202.008C431.454 249.128 430.937 296.248 430.437 343.368C416.876 338.248 410.104 335.679 396.577 330.709Z" fill="#FDF7F7"/>
<path d="M486.598 238.986C487.115 249.028 480.16 253.548 470.002 249.328C459.844 245.108 452.588 234.633 452.455 224.608C452.338 214.984 459.093 209.73 468.851 213.933C478.625 218.12 486.098 229.345 486.598 238.986ZM456.641 353.326C456.141 320.433 455.64 287.541 455.123 254.649C467.333 259.703 473.421 262.238 485.631 267.125C487.249 300.067 488.867 332.993 490.484 365.936C476.94 360.999 470.169 358.447 456.641 353.326Z" fill="#FDF7F7"/>
<path d="M594.733 394.025C587.16 396.243 578.687 396.893 566.794 393.858C542.475 387.619 523.727 366.436 521.108 341.317C519.874 326.355 519.257 318.866 518.023 303.904C510.884 301.319 507.331 299.984 500.192 297.265C499.558 287.258 499.241 282.27 498.607 272.262C505.546 274.981 509.016 276.316 515.954 278.901C514.987 267.242 514.503 261.421 513.552 249.761C525.362 254.315 531.266 256.5 543.076 260.553C544.427 272.212 545.111 278.034 546.462 289.676C557.754 293.412 563.391 295.164 574.684 298.3C576.168 308.274 576.902 313.261 578.37 323.236C566.778 320.117 560.973 318.382 549.364 314.662C550.965 328.356 551.766 335.212 553.35 348.906C554.535 359.147 560.172 364.868 568.846 367.304C573.383 368.571 579.354 368.655 583.324 367.404C587.794 378.095 590.079 383.416 594.733 394.025Z" fill="#FDF7F7"/>
<path d="M620.353 280.786C622.405 290.71 616.6 297.032 606.442 294.947C596.284 292.862 587.894 283.571 586.227 273.58C584.625 263.973 590.13 257.618 599.887 259.769C609.628 261.904 618.385 271.245 620.353 280.786ZM609.978 401.497C604.424 368.705 598.886 335.912 593.332 303.12C605.542 306.022 611.63 307.257 623.839 309.208C630.495 341.8 637.166 374.409 643.822 407.001C630.294 405.35 623.522 404.216 609.978 401.497Z" fill="#FDF7F7"/>
<path d="M760.379 358.013C736.194 365.302 711.007 368.988 685.754 369.322C691.392 380.797 701.783 387.72 712.959 386.619C720.615 385.868 729.038 382.849 731.657 372.658C743.95 372.808 750.138 372.541 762.564 371.223C760.746 393.941 741.698 409.003 719.931 410.954C689.49 413.69 658.132 390.355 652.111 360.198C646.974 334.411 663.737 310.276 691.058 309.809C717.646 309.358 748.603 322.835 757.677 350.457C758.778 353.476 759.312 354.994 760.379 358.013ZM681.451 350.507C697.897 350.357 706.137 349.74 722.583 347.071C716.428 337.397 707.188 333.811 698.197 334.511C689.39 335.212 681.868 340.699 681.451 350.507Z" fill="#FDF7F7"/>
<path d="M805.431 349.907C810.051 356.846 819.325 355.595 828.232 350.307C836.939 345.153 840.258 338.765 838.49 334.979C837.122 332.06 833.42 331.709 825.313 335.045C816.356 338.681 811.903 340.249 803.029 342.951C782.88 349.323 768.619 343.268 763.448 328.94C755.625 307.24 776.025 289.076 792.938 280.002C808.2 271.812 832.786 261.254 848.715 274.881C838.273 286.04 833.019 291.178 822.428 300.602C818.958 295.898 810.868 294.93 801.328 300.201C792.954 304.822 791.787 309.725 793.138 312.911C794.172 315.396 796.39 317.398 803.263 315.23C813.337 311.894 818.391 309.942 828.549 305.355C849.065 296.231 863.81 297.883 869.281 309.759C880.323 333.677 855.453 359.748 835.571 372.258C818.074 383.25 789.168 390.389 775.658 369.272C787.634 362.4 793.605 358.547 805.431 349.907Z" fill="#FDF7F7"/>
<path d="M360.9 129.201C350.642 125.915 345.671 124.297 335.897 121.629C313.863 95.6917 290.678 72.34 263.99 51.09C267.61 73.174 270.962 95.3747 275.916 117.209C264.124 119.61 258.152 121.729 245.693 128.818C242.874 91.2715 240.689 53.6754 237.82 16.146C239.738 11.0086 242.69 9.07378 250.78 6.12146C280.703 24.2023 305.223 46.5531 328.724 72.2066C328.341 48.121 328.107 24.0021 325.922 0C342.652 0.61715 351.225 1.28434 365.62 2.73548C365.386 44.9686 361.4 86.9848 360.9 129.201Z" fill="#FDF7F7"/>
<path d="M486.331 122.946C460.928 116.291 435.608 109.353 410.254 102.564C412.289 115.424 420.579 125.148 431.905 128.301C439.661 130.469 448.718 131.203 454.639 122.63C466.398 128.251 472.286 131.053 483.829 136.641C474.722 157.574 450.686 159.959 431.504 153.687C404.116 144.73 375.794 117.692 378.947 86.1343C381.715 58.4626 407.336 37.0292 435.608 45.6026C465.548 54.693 486.698 82.348 486.514 114.29C486.431 117.759 486.397 119.494 486.331 122.946ZM411.989 82.7817C428.902 87.1518 437.509 89.5036 454.523 93.9905C451.837 81.9644 443.881 74.6587 434.507 72.2067C425.333 69.8049 415.659 73.1575 411.989 82.7817Z" fill="#FDF7F7"/>
<path d="M609.828 181.025C599.119 183.978 593.765 184.812 583.04 185.529C578.003 164.446 572.882 143.412 567.678 122.363C561.256 142.895 554.818 163.428 548.163 183.877C537.454 182.276 532.1 181.042 521.375 178.106C511.934 139.376 502.077 100.762 491.769 62.2655C504.295 64.9343 510.467 66.2019 522.926 67.7531C527.997 88.3526 532.867 108.985 537.705 129.635C544.66 109.619 551.365 89.5202 558.054 69.4211C567.028 69.0708 571.514 68.6372 580.471 67.0693C586.076 87.3852 591.48 107.751 596.884 128.117C603.239 104.282 609.477 80.4297 615.599 56.5443C628.059 51.1234 634.297 47.654 646.757 38.7471C634.864 86.2676 622.571 133.705 609.828 181.025Z" fill="#FDF7F7"/>
</svg>
