<svg width="346" height="181" viewBox="0 0 346 181" fill="none" xmlns="http://www.w3.org/2000/svg">
<path d="M98.3612 89.9214V98.0642C98.3612 131.158 104.289 135.682 106.739 135.682C108.419 135.682 110.628 133.342 110.628 129.216C110.628 118.234 113.74 103.477 127.905 99.8737C128.418 99.7489 128.807 100.131 128.683 100.388C125.719 106.464 126.349 111.121 126.349 114.74C126.349 121.978 128.286 132.578 130.472 136.976C130.604 137.234 130.736 137.491 130.215 137.491H70.5133V135.151H72.318C74.3793 130.628 81.2169 114.209 81.2169 87.5737C81.1268 72.2405 78.106 57.0668 72.318 42.8741H70.5133V40.5342H127.625C128.138 40.5342 128.27 40.7994 128.138 41.3141C126.466 47.5538 125.307 55.6576 125.307 59.6666C125.307 63.5665 125.945 72.4658 128.418 77.3796C128.675 77.8944 128.418 78.1596 127.905 78.0192C108.956 73.238 108.824 55.9228 108.824 49.9405C108.824 46.4541 108.31 42.8351 105.712 42.8351C100.034 42.8351 98.3612 64.0344 98.3612 80.4448V87.0745H100.811C105.323 87.0745 108.419 83.9547 108.419 78.0192C108.419 75.3049 107.517 72.9806 105.969 70.0089C105.837 69.7516 105.712 69.4942 105.969 69.229L106.996 68.449C107.385 68.1916 107.641 68.1916 107.773 68.449C109.835 71.0385 116.151 77.6292 116.151 87.8389C116.151 98.306 111.639 104.382 108.287 107.744C108.03 108.001 107.773 108.258 107.509 108.001L106.218 106.839C105.829 106.449 105.961 106.324 106.607 105.544C109.181 102.19 108.792 96.4965 107.633 94.1722C107.03 92.8736 106.064 91.7788 104.851 91.0213C103.638 90.2638 102.232 89.8762 100.804 89.9058L98.3612 89.9214Z" fill="#0B0B0C"/>
<path d="M163.718 97.0352C163.718 117.587 170.556 131.159 172.617 135.168H175.449V137.507H137.426V135.168H139.231C141.806 129.349 146.574 113.188 146.574 85.7881C146.574 60.4549 141.035 46.8758 139.231 42.8902H137.426V40.5503H178.653C186.129 40.5503 200.955 43.1398 200.955 65.1113C200.955 78.1679 194.507 86.3107 182.286 89.0249V89.2823C195.821 93.5487 200.465 99.3672 200.465 122.891C200.465 127.025 200.722 130.129 203.172 130.129C203.942 130.102 204.678 129.802 205.247 129.282C205.817 128.762 206.184 128.056 206.284 127.29C206.282 127.255 206.288 127.221 206.301 127.189C206.313 127.157 206.332 127.128 206.356 127.103C206.38 127.078 206.409 127.058 206.44 127.045C206.472 127.032 206.506 127.025 206.54 127.025H207.575C207.832 127.025 207.832 127.29 207.832 127.547C207.832 129.482 207.054 138.014 193.526 138.014C181.796 138.014 178.7 129.872 178.7 122.634C178.7 118.625 180.256 114.491 180.256 107.12C180.256 99.6246 178.965 90.7409 169.296 90.7409H163.718V97.0352ZM166.946 88.1124C178.031 88.1124 179.704 78.4175 179.704 64.8461C179.704 54.379 178.288 42.8746 171.326 42.8746C163.851 42.8746 163.718 72.5132 163.718 81.5217V88.1124H166.946Z" fill="#0B0B0C"/>
<path d="M270.722 134.813V137.152H233.976V134.813H236.309C239.016 130.546 240.043 119.166 240.043 116.195C240.106 113.727 239.934 111.259 239.53 108.824H226.119C225.709 111.172 225.535 113.555 225.598 115.937C225.598 121.233 227.022 130.289 229.34 134.813H231.673V137.152H208.197V134.813H210.531C221.748 119.946 229.612 75.2234 239.312 40.1875H244.469C247.822 66.558 255.686 110.252 268.708 134.813H270.722ZM239.265 105.954C239.009 100.494 234.754 80.8781 233.338 74.1549H233.073C231.401 80.6207 227.022 101.04 226.5 105.954H239.265Z" fill="#0B0B0C"/>
<path d="M173 178.677C267.441 178.677 344 139.127 344 90.3385C344 41.5505 267.441 2 173 2C78.5593 2 2 41.5505 2 90.3385C2 139.127 78.5593 178.677 173 178.677Z" stroke="#0B0B0C" stroke-width="3" stroke-miterlimit="10"/>
<path d="M297.61 125.915C290.511 127.984 287.071 131.836 284.814 138.704V113.119C286.815 120.742 291.384 124.195 297.61 125.915Z" fill="#0B0B0C"/>
<path d="M284.815 113.119V138.704C283.053 132.172 278.788 127.909 272.019 125.915C279.137 123.708 283.402 119.443 284.815 113.119Z" fill="#0B0B0C"/>
<path d="M272 125.915C279.099 127.984 282.533 131.836 284.796 138.704V113.119C282.814 120.742 278.233 124.195 272 125.915Z" fill="#0B0B0C"/>
<path d="M284.814 113.119V138.704C286.572 132.172 290.837 127.909 297.61 125.915C290.509 123.708 286.244 119.443 284.814 113.119Z" fill="#0B0B0C"/>
</svg>
